<svg width="120" height="120" viewBox="0 0 120 120" xmlns="http://www.w3.org/2000/svg">
  <defs>
    <linearGradient id="crownGrad" x1="0%" y1="0%" x2="100%" y2="100%">
      <stop offset="0%" style="stop-color:#8b5cf6;stop-opacity:1" />
      <stop offset="100%" style="stop-color:#7c3aed;stop-opacity:1" />
    </linearGradient>
  </defs>
  
  <!-- Main circle background -->
  <circle cx="60" cy="60" r="50" fill="url(#crownGrad)" />
  
  <!-- Crown base -->
  <rect x="28" y="72" width="64" height="10" rx="5" fill="#fbbf24" />
  <rect x="30" y="74" width="60" height="6" rx="3" fill="#f59e0b" />
  
  <!-- Crown points -->
  <path d="M 28 72 L 33 45 L 43 62 L 60 35 L 77 62 L 87 45 L 92 72 Z" fill="#fbbf24" />
  
  <!-- Crown shadow/depth -->
  <path d="M 28 72 L 33 45 L 43 62 L 60 35 L 77 62 L 87 45 L 92 72 Z" fill="#f59e0b" opacity="0.3" transform="translate(2,2)" />
  
  <!-- Main gems -->
  <circle cx="60" cy="48" r="4" fill="#ef4444" />
  <circle cx="43" cy="62" r="3" fill="#22c55e" />
  <circle cx="77" cy="62" r="3" fill="#3b82f6" />
  
  <!-- Side gems -->
  <circle cx="33" cy="58" r="2" fill="#a855f7" />
  <circle cx="87" cy="58" r="2" fill="#f97316" />
  
  <!-- Gem highlights -->
  <circle cx="61" cy="46" r="1.5" fill="white" opacity="0.8" />
  <circle cx="44" cy="60" r="1" fill="white" opacity="0.8" />
  <circle cx="78" cy="60" r="1" fill="white" opacity="0.8" />
  
  <!-- Crown decoration bands -->
  <rect x="30" y="75" width="60" height="1" fill="#eab308" />
  <rect x="32" y="77" width="56" height="1" fill="#eab308" />
  
  <!-- Sparkles around crown -->
  <g opacity="0.9">
    <path d="M 22 40 L 25 43 L 22 46 L 19 43 Z" fill="white">
      <animate attributeName="opacity" values="0.5;1;0.5" dur="1.8s" repeatCount="indefinite" />
    </path>
    <path d="M 98 50 L 101 53 L 98 56 L 95 53 Z" fill="white">
      <animate attributeName="opacity" values="0.5;1;0.5" dur="1.8s" begin="0.6s" repeatCount="indefinite" />
    </path>
    <path d="M 75 20 L 78 23 L 75 26 L 72 23 Z" fill="white">
      <animate attributeName="opacity" values="0.5;1;0.5" dur="1.8s" begin="1.2s" repeatCount="indefinite" />
    </path>
    <path d="M 25 85 L 28 88 L 25 91 L 22 88 Z" fill="white">
      <animate attributeName="opacity" values="0.5;1;0.5" dur="1.8s" begin="0.3s" repeatCount="indefinite" />
    </path>
  </g>
</svg>